<?xml version="1.0" encoding="UTF-8"?>
<svg xmlns="http://www.w3.org/2000/svg" xmlns:xlink="http://www.w3.org/1999/xlink" width="24pt" height="24pt" viewBox="0 0 24 24" version="1.1">
<g id="surface1">
<path style=" stroke:none;fill-rule:nonzero;fill:#F0F0F0;fill-opacity:1;" d="M 17 3 L 7 3 C 4.789063 3 3 4.789063 3 7 L 3 17 C 3 19.210938 4.789063 21 7 21 L 12.621094 21 L 12.621094 14.039063 L 10.277344 14.039063 L 10.277344 11.3125 L 12.621094 11.3125 L 12.621094 9.308594 C 12.621094 6.984375 14.042969 5.71875 16.117188 5.71875 C 16.816406 5.714844 17.511719 5.753906 18.207031 5.824219 L 18.207031 8.253906 L 16.78125 8.253906 C 15.648438 8.253906 15.429688 8.785156 15.429688 9.574219 L 15.429688 11.308594 L 18.128906 11.308594 L 17.777344 14.035156 L 15.414063 14.035156 L 15.414063 21 L 17 21 C 19.210938 21 21 19.210938 21 17 L 21 7 C 21 4.789063 19.210938 3 17 3 Z "/>
</g>
</svg>
