<?xml version="1.0" encoding="UTF-8"?>
<svg xmlns="http://www.w3.org/2000/svg" xmlns:xlink="http://www.w3.org/1999/xlink" width="30pt" height="30pt" viewBox="0 0 30 30" version="1.1">
<g id="surface1">
<path style=" stroke:none;fill-rule:nonzero;fill:#F5F2F2;fill-opacity:1;" d="M 7 4.5 C 5.617188 4.5 4.5 5.617188 4.5 7 C 4.5 8.382813 5.617188 9.5 7 9.5 C 8.382813 9.5 9.5 8.382813 9.5 7 C 9.5 5.617188 8.382813 4.5 7 4.5 Z M 15 4.5 C 13.617188 4.5 12.5 5.617188 12.5 7 C 12.5 8.382813 13.617188 9.5 15 9.5 C 16.382813 9.5 17.5 8.382813 17.5 7 C 17.5 5.617188 16.382813 4.5 15 4.5 Z M 23 4.5 C 21.617188 4.5 20.5 5.617188 20.5 7 C 20.5 8.382813 21.617188 9.5 23 9.5 C 24.382813 9.5 25.5 8.382813 25.5 7 C 25.5 5.617188 24.382813 4.5 23 4.5 Z M 7 12.5 C 5.617188 12.5 4.5 13.617188 4.5 15 C 4.5 16.382813 5.617188 17.5 7 17.5 C 8.382813 17.5 9.5 16.382813 9.5 15 C 9.5 13.617188 8.382813 12.5 7 12.5 Z M 15 12.5 C 13.617188 12.5 12.5 13.617188 12.5 15 C 12.5 16.382813 13.617188 17.5 15 17.5 C 16.382813 17.5 17.5 16.382813 17.5 15 C 17.5 13.617188 16.382813 12.5 15 12.5 Z M 23 12.5 C 21.617188 12.5 20.5 13.617188 20.5 15 C 20.5 16.382813 21.617188 17.5 23 17.5 C 24.382813 17.5 25.5 16.382813 25.5 15 C 25.5 13.617188 24.382813 12.5 23 12.5 Z M 7 20.5 C 5.617188 20.5 4.5 21.617188 4.5 23 C 4.5 24.382813 5.617188 25.5 7 25.5 C 8.382813 25.5 9.5 24.382813 9.5 23 C 9.5 21.617188 8.382813 20.5 7 20.5 Z M 15 20.5 C 13.617188 20.5 12.5 21.617188 12.5 23 C 12.5 24.382813 13.617188 25.5 15 25.5 C 16.382813 25.5 17.5 24.382813 17.5 23 C 17.5 21.617188 16.382813 20.5 15 20.5 Z M 23 20.5 C 21.617188 20.5 20.5 21.617188 20.5 23 C 20.5 24.382813 21.617188 25.5 23 25.5 C 24.382813 25.5 25.5 24.382813 25.5 23 C 25.5 21.617188 24.382813 20.5 23 20.5 Z "/>
</g>
</svg>
