<?xml version="1.0" encoding="UTF-8"?>
<svg xmlns="http://www.w3.org/2000/svg" xmlns:xlink="http://www.w3.org/1999/xlink" width="50pt" height="50pt" viewBox="0 0 50 50" version="1.1">
<g id="surface1">
<path style=" stroke:none;fill-rule:nonzero;fill:#F0F0F0;fill-opacity:1;" d="M 25 2 C 12.316406 2 2 12.316406 2 25 C 2 37.683594 12.316406 48 25 48 C 37.683594 48 48 37.683594 48 25 C 48 12.316406 37.683594 2 25 2 Z M 36.238281 20.523438 C 36.246094 20.761719 36.253906 21 36.253906 21.242188 C 36.253906 28.558594 30.679688 37 20.492188 37 C 17.363281 37 14.449219 36.082031 12 34.511719 C 12.433594 34.5625 12.871094 34.589844 13.320313 34.589844 C 15.917969 34.589844 18.304688 33.703125 20.199219 32.21875 C 17.777344 32.175781 15.730469 30.570313 15.023438 28.371094 C 15.363281 28.4375 15.710938 28.472656 16.070313 28.472656 C 16.574219 28.472656 17.0625 28.402344 17.527344 28.277344 C 14.996094 27.765625 13.085938 25.527344 13.085938 22.84375 C 13.085938 22.820313 13.085938 22.796875 13.085938 22.773438 C 13.832031 23.1875 14.6875 23.4375 15.59375 23.46875 C 14.105469 22.472656 13.132813 20.777344 13.132813 18.855469 C 13.132813 17.84375 13.402344 16.890625 13.878906 16.070313 C 16.613281 19.421875 20.695313 21.628906 25.296875 21.859375 C 25.203125 21.453125 25.152344 21.03125 25.152344 20.597656 C 25.152344 17.539063 27.632813 15.058594 30.691406 15.058594 C 32.285156 15.058594 33.726563 15.730469 34.734375 16.808594 C 35.996094 16.558594 37.183594 16.097656 38.253906 15.464844 C 37.839844 16.757813 36.960938 17.84375 35.816406 18.527344 C 36.9375 18.390625 38.003906 18.097656 39 17.65625 C 38.257813 18.765625 37.316406 19.742188 36.238281 20.523438 Z "/>
</g>
</svg>
