<?xml version="1.0" encoding="UTF-8"?>
<svg xmlns="http://www.w3.org/2000/svg" xmlns:xlink="http://www.w3.org/1999/xlink" width="32pt" height="32pt" viewBox="0 0 32 32" version="1.1">
<g id="surface1">
<path style=" stroke:none;fill-rule:nonzero;fill:#F0F0F0;fill-opacity:1;" d="M 8.78125 4 L 10.4375 9.4375 L 10.4375 12.96875 L 11.8125 12.96875 L 11.8125 9.25 L 13.4375 4 L 12.03125 4 L 11.15625 7.59375 L 11.09375 7.59375 L 10.1875 4 Z M 15.21875 6.1875 C 14.660156 6.1875 14.207031 6.351563 13.875 6.65625 C 13.542969 6.957031 13.375 7.363281 13.375 7.875 L 13.375 11.3125 C 13.375 11.875 13.550781 12.324219 13.875 12.65625 C 14.199219 12.988281 14.617188 13.15625 15.15625 13.15625 C 15.714844 13.15625 16.148438 12.976563 16.46875 12.65625 C 16.785156 12.332031 16.9375 11.910156 16.9375 11.34375 L 16.9375 7.90625 C 16.9375 7.402344 16.792969 6.976563 16.46875 6.65625 C 16.144531 6.335938 15.730469 6.1875 15.21875 6.1875 Z M 18 6.34375 L 18 11.90625 C 18 12.304688 18.074219 12.585938 18.21875 12.78125 C 18.363281 12.976563 18.589844 13.0625 18.875 13.0625 C 19.105469 13.0625 19.320313 13.015625 19.5625 12.875 C 19.808594 12.734375 20.054688 12.519531 20.28125 12.25 L 20.28125 12.96875 L 21.5 12.96875 L 21.5 6.34375 L 20.28125 6.34375 L 20.28125 11.375 C 20.167969 11.519531 20.046875 11.65625 19.90625 11.75 C 19.769531 11.84375 19.652344 11.875 19.5625 11.875 C 19.449219 11.875 19.363281 11.851563 19.3125 11.78125 C 19.257813 11.710938 19.21875 11.589844 19.21875 11.4375 L 19.21875 6.34375 Z M 15.15625 7.34375 C 15.320313 7.34375 15.464844 7.378906 15.5625 7.46875 C 15.664063 7.558594 15.6875 7.667969 15.6875 7.8125 L 15.6875 11.4375 C 15.6875 11.617188 15.660156 11.746094 15.5625 11.84375 C 15.460938 11.945313 15.324219 12 15.15625 12 C 14.996094 12 14.867188 11.941406 14.78125 11.84375 C 14.691406 11.742188 14.65625 11.617188 14.65625 11.4375 C 14.65625 11.4375 14.65625 7.8125 14.65625 7.8125 C 14.65625 7.667969 14.6875 7.558594 14.78125 7.46875 C 14.875 7.378906 15.003906 7.34375 15.15625 7.34375 Z M 15 14.53125 C 12.625 14.527344 10.308594 14.558594 8.03125 14.65625 C 6.441406 14.65625 5.125 15.957031 5.125 17.53125 C 5.03125 18.777344 4.996094 20.03125 5 21.28125 C 4.996094 22.527344 5.027344 23.75 5.125 25 C 5.125 26.578125 6.4375 27.875 8.03125 27.875 C 10.308594 27.96875 12.625 28.003906 15 28 C 17.378906 28.003906 19.695313 27.96875 21.96875 27.875 C 23.5625 27.875 24.875 26.578125 24.875 25 C 24.96875 23.75 25.003906 22.527344 25 21.28125 C 25.003906 20.03125 24.972656 18.777344 24.875 17.53125 C 24.875 15.957031 23.5625 14.65625 21.96875 14.65625 C 19.695313 14.5625 17.378906 14.527344 15 14.53125 Z M 6.5625 16.59375 L 10.75 16.59375 C 10.824219 16.59375 10.875 16.644531 10.875 16.71875 L 10.875 18 C 10.875 18.074219 10.824219 18.125 10.75 18.125 L 9.46875 18.125 L 9.46875 25.5625 C 9.46875 25.636719 9.417969 25.6875 9.34375 25.6875 L 7.96875 25.6875 C 7.894531 25.6875 7.8125 25.636719 7.8125 25.5625 L 7.8125 18.125 L 6.5625 18.125 C 6.488281 18.125 6.40625 18.074219 6.40625 18 L 6.40625 16.71875 C 6.40625 16.644531 6.488281 16.59375 6.5625 16.59375 Z M 15.375 16.59375 L 16.59375 16.59375 C 16.667969 16.59375 16.75 16.644531 16.75 16.71875 L 16.75 19.21875 C 16.851563 19.125 16.953125 19.0625 17.0625 19 C 17.269531 18.886719 17.476563 18.8125 17.6875 18.8125 C 18.117188 18.8125 18.425781 18.964844 18.65625 19.28125 C 18.875 19.585938 19 20.035156 19 20.59375 L 19 24.21875 C 19 24.714844 18.898438 25.105469 18.6875 25.375 C 18.46875 25.65625 18.152344 25.78125 17.75 25.78125 C 17.496094 25.78125 17.269531 25.730469 17.0625 25.625 C 16.953125 25.566406 16.851563 25.496094 16.75 25.40625 L 16.75 25.5625 C 16.75 25.636719 16.667969 25.6875 16.59375 25.6875 L 15.375 25.6875 C 15.300781 25.6875 15.25 25.636719 15.25 25.5625 L 15.25 16.71875 C 15.25 16.644531 15.300781 16.59375 15.375 16.59375 Z M 21.625 18.71875 C 22.21875 18.71875 22.675781 18.921875 23 19.28125 C 23.320313 19.636719 23.5 20.128906 23.5 20.78125 L 23.5 22.46875 C 23.5 22.542969 23.417969 22.59375 23.34375 22.59375 L 21.15625 22.59375 L 21.15625 23.6875 C 21.15625 24.085938 21.207031 24.238281 21.25 24.3125 C 21.285156 24.371094 21.371094 24.46875 21.5625 24.46875 C 21.714844 24.46875 21.820313 24.417969 21.875 24.34375 C 21.902344 24.304688 21.96875 24.164063 21.96875 23.6875 L 21.96875 23.21875 C 21.96875 23.144531 22.019531 23.09375 22.09375 23.09375 L 23.34375 23.09375 C 23.417969 23.09375 23.46875 23.144531 23.46875 23.21875 L 23.46875 23.71875 C 23.46875 24.421875 23.324219 24.949219 23 25.3125 C 22.671875 25.679688 22.175781 25.875 21.53125 25.875 C 20.949219 25.875 20.460938 25.671875 20.125 25.28125 C 19.792969 24.898438 19.625 24.378906 19.625 23.71875 L 19.625 20.78125 C 19.625 20.179688 19.820313 19.695313 20.1875 19.3125 C 20.554688 18.929688 21.042969 18.71875 21.625 18.71875 Z M 10.71875 18.90625 L 11.9375 18.90625 C 12.011719 18.90625 12.09375 18.957031 12.09375 19.03125 L 12.09375 24.03125 C 12.09375 24.195313 12.105469 24.257813 12.125 24.28125 C 12.132813 24.292969 12.148438 24.34375 12.25 24.34375 C 12.285156 24.34375 12.386719 24.316406 12.53125 24.21875 C 12.648438 24.140625 12.75 24.050781 12.84375 23.9375 L 12.84375 19.03125 C 12.84375 18.957031 12.894531 18.90625 12.96875 18.90625 L 14.1875 18.90625 C 14.261719 18.90625 14.3125 18.957031 14.3125 19.03125 L 14.3125 25.5625 L 14.34375 25.5625 C 14.34375 25.636719 14.261719 25.6875 14.1875 25.6875 L 12.96875 25.6875 C 12.894531 25.6875 12.84375 25.636719 12.84375 25.5625 L 12.84375 25.1875 C 12.683594 25.34375 12.511719 25.46875 12.34375 25.5625 C 12.078125 25.714844 11.820313 25.78125 11.5625 25.78125 C 11.238281 25.78125 11.011719 25.667969 10.84375 25.4375 C 10.683594 25.21875 10.59375 24.914063 10.59375 24.5 L 10.59375 19.03125 C 10.59375 18.957031 10.644531 18.90625 10.71875 18.90625 Z M 17.1875 20.125 C 17.105469 20.109375 17.007813 20.136719 16.90625 20.1875 C 16.847656 20.214844 16.808594 20.253906 16.75 20.3125 L 16.75 24.28125 C 16.824219 24.355469 16.871094 24.402344 16.9375 24.4375 C 17.011719 24.472656 17.105469 24.46875 17.1875 24.46875 C 17.34375 24.46875 17.390625 24.425781 17.40625 24.40625 C 17.445313 24.359375 17.46875 24.25 17.46875 24.03125 L 17.46875 20.65625 C 17.46875 20.46875 17.441406 20.339844 17.375 20.25 C 17.332031 20.191406 17.269531 20.140625 17.1875 20.125 Z M 21.5625 20.15625 C 21.417969 20.15625 21.308594 20.199219 21.25 20.28125 C 21.207031 20.339844 21.15625 20.476563 21.15625 20.78125 L 21.15625 21.3125 L 21.96875 21.3125 L 21.96875 20.78125 C 21.96875 20.480469 21.890625 20.347656 21.84375 20.28125 C 21.789063 20.203125 21.703125 20.15625 21.5625 20.15625 Z "/>
</g>
</svg>
